<svg id="Layer_1" data-name="Layer 1" xmlns="http://www.w3.org/2000/svg" viewBox="0 0 580 580"><defs><style>.cls-1{fill:#ffbf28;}.cls-2{fill:#ffbe27;}.cls-3{fill:#ffbd27;}.cls-4{fill:#ffbc26;}.cls-5{fill:#ffbb25;}.cls-6{fill:#ffba25;}.cls-7{fill:#ffb924;}.cls-8{fill:#ffb823;}.cls-9{fill:#ffb722;}.cls-10{fill:#ffb622;}.cls-11{fill:#ffb521;}.cls-12{fill:#ffb420;}.cls-13{fill:#ffb320;}.cls-14{fill:#ffb21f;}.cls-15{fill:#ffb11e;}.cls-16{fill:#ffb01e;}.cls-17{fill:#ffaf1d;}.cls-18{fill:#ffae1c;}.cls-19{fill:#ffad1c;}.cls-20{fill:#ffac1b;}.cls-21{fill:#ffab1a;}.cls-22{fill:#ffaa1a;}.cls-23{fill:#ffa919;}.cls-24{fill:#ffa818;}.cls-25{fill:#ffa717;}.cls-26{fill:#ffa617;}.cls-27{fill:#ffa516;}.cls-28{fill:#ffa415;}.cls-29{fill:#ffa315;}.cls-30{fill:#ffa214;}.cls-31{fill:#ffa213;}.cls-32{fill:#ffa113;}.cls-33{fill:#ffa012;}.cls-34{fill:#ff9f11;}.cls-35{fill:#ff9e11;}.cls-36{fill:#ff9d10;}.cls-37{fill:#ff9c0f;}.cls-38{fill:#ff9b0e;}.cls-39{fill:#ff9a0e;}.cls-40{fill:#ff990d;}.cls-41{fill:#ff980c;}.cls-42{fill:#ff970c;}.cls-43{fill:#ff960b;}.cls-44{fill:#ff950a;}.cls-45{fill:#ff940a;}.cls-46{fill:#ff9309;}.cls-47{fill:#ff9208;}.cls-48{fill:#ff9108;}.cls-49{fill:#ff9007;}.cls-50{fill:#ff8f06;}.cls-51{fill:#ff8e06;}.cls-52{fill:#ff8d05;}.cls-53{fill:#ff8c04;}.cls-54{fill:#ff8b03;}.cls-55{fill:#ff8a03;}.cls-56{fill:#ff8902;}.cls-57{fill:#ff8801;}.cls-58{fill:#ff8701;}.cls-59{fill:#ff8600;}.cls-60{fill:#ffa314;}</style></defs><title>sun</title><circle class="cls-1" cx="290" cy="290" r="290"/><circle class="cls-2" cx="289.99" cy="290.01" r="288.42"/><circle class="cls-3" cx="289.98" cy="290.02" r="286.84"/><circle class="cls-4" cx="289.97" cy="290.03" r="285.27"/><circle class="cls-5" cx="289.97" cy="290.03" r="283.69"/><circle class="cls-6" cx="289.96" cy="290.04" r="282.11"/><circle class="cls-7" cx="289.95" cy="290.05" r="280.53"/><circle class="cls-8" cx="289.94" cy="290.06" r="278.96"/><circle class="cls-9" cx="289.93" cy="290.07" r="277.38"/><circle class="cls-10" cx="289.92" cy="290.08" r="275.8"/><circle class="cls-11" cx="289.91" cy="290.09" r="274.22"/><circle class="cls-12" cx="289.91" cy="290.09" r="272.65"/><circle class="cls-13" cx="289.9" cy="290.1" r="271.07"/><circle class="cls-14" cx="289.89" cy="290.11" r="269.49"/><circle class="cls-15" cx="289.88" cy="290.12" r="267.91"/><circle class="cls-16" cx="289.87" cy="290.13" r="266.34"/><circle class="cls-17" cx="289.86" cy="290.14" r="264.76"/><circle class="cls-18" cx="289.85" cy="290.15" r="263.18"/><circle class="cls-19" cx="289.84" cy="290.16" r="261.6"/><circle class="cls-20" cx="289.84" cy="290.16" r="260.03"/><circle class="cls-21" cx="289.83" cy="290.17" r="258.45"/><circle class="cls-22" cx="289.82" cy="290.18" r="256.87"/><circle class="cls-23" cx="289.81" cy="290.19" r="255.29"/><circle class="cls-24" cx="289.8" cy="290.2" r="253.72"/><circle class="cls-25" cx="289.79" cy="290.21" r="252.14"/><circle class="cls-26" cx="289.78" cy="290.22" r="250.56"/><circle class="cls-27" cx="289.78" cy="290.22" r="248.98"/><circle class="cls-28" cx="289.77" cy="290.23" r="247.41"/><circle class="cls-29" cx="289.76" cy="290.24" r="245.83"/><circle class="cls-30" cx="289.75" cy="290.25" r="244.25"/><circle class="cls-31" cx="289.74" cy="290.26" r="242.67"/><circle class="cls-32" cx="289.73" cy="290.27" r="241.09"/><circle class="cls-33" cx="289.72" cy="290.28" r="239.52"/><circle class="cls-34" cx="289.72" cy="290.28" r="237.94"/><circle class="cls-35" cx="289.71" cy="290.29" r="236.36"/><circle class="cls-36" cx="289.7" cy="290.3" r="234.78"/><circle class="cls-37" cx="289.69" cy="290.31" r="233.21"/><circle class="cls-38" cx="289.68" cy="290.32" r="231.63"/><circle class="cls-39" cx="289.67" cy="290.33" r="230.05"/><circle class="cls-40" cx="289.66" cy="290.34" r="228.47"/><circle class="cls-41" cx="289.66" cy="290.34" r="226.9"/><circle class="cls-42" cx="289.65" cy="290.35" r="225.32"/><circle class="cls-43" cx="289.64" cy="290.36" r="223.74"/><circle class="cls-44" cx="289.63" cy="290.37" r="222.16"/><circle class="cls-45" cx="289.62" cy="290.38" r="220.59"/><circle class="cls-46" cx="289.61" cy="290.39" r="219.01"/><circle class="cls-47" cx="289.6" cy="290.4" r="217.43"/><circle class="cls-48" cx="289.59" cy="290.41" r="215.85"/><circle class="cls-49" cx="289.59" cy="290.41" r="214.28"/><circle class="cls-50" cx="289.58" cy="290.42" r="212.7"/><circle class="cls-51" cx="289.57" cy="290.43" r="211.12"/><circle class="cls-52" cx="289.56" cy="290.44" r="209.54"/><circle class="cls-53" cx="289.55" cy="290.45" r="207.97"/><circle class="cls-54" cx="289.54" cy="290.46" r="206.39"/><circle class="cls-55" cx="289.53" cy="290.47" r="204.81"/><circle class="cls-56" cx="289.53" cy="290.47" r="203.23"/><circle class="cls-57" cx="289.52" cy="290.48" r="201.66"/><circle class="cls-58" cx="289.51" cy="290.49" r="200.08"/><circle class="cls-59" cx="289.5" cy="290.5" r="198.5"/><circle class="cls-58" cx="289.51" cy="290.49" r="197.29"/><circle class="cls-57" cx="289.52" cy="290.48" r="196.09"/><circle class="cls-56" cx="289.53" cy="290.47" r="194.88"/><circle class="cls-55" cx="289.53" cy="290.47" r="193.67"/><circle class="cls-54" cx="289.54" cy="290.46" r="192.47"/><circle class="cls-53" cx="289.55" cy="290.45" r="191.26"/><circle class="cls-52" cx="289.56" cy="290.44" r="190.05"/><circle class="cls-51" cx="289.57" cy="290.43" r="188.84"/><circle class="cls-50" cx="289.58" cy="290.42" r="187.64"/><circle class="cls-49" cx="289.59" cy="290.41" r="186.43"/><circle class="cls-48" cx="289.59" cy="290.41" r="185.22"/><circle class="cls-47" cx="289.6" cy="290.4" r="184.02"/><circle class="cls-46" cx="289.61" cy="290.39" r="182.81"/><circle class="cls-45" cx="289.62" cy="290.38" r="181.6"/><circle class="cls-44" cx="289.63" cy="290.37" r="180.4"/><circle class="cls-43" cx="289.64" cy="290.36" r="179.19"/><circle class="cls-42" cx="289.65" cy="290.35" r="177.98"/><circle class="cls-41" cx="289.66" cy="290.34" r="176.78"/><circle class="cls-40" cx="289.66" cy="290.34" r="175.57"/><circle class="cls-39" cx="289.67" cy="290.33" r="174.36"/><circle class="cls-38" cx="289.68" cy="290.32" r="173.16"/><circle class="cls-37" cx="289.69" cy="290.31" r="171.95"/><circle class="cls-36" cx="289.7" cy="290.3" r="170.74"/><circle class="cls-35" cx="289.71" cy="290.29" r="169.53"/><circle class="cls-34" cx="289.72" cy="290.28" r="168.33"/><circle class="cls-33" cx="289.72" cy="290.28" r="167.12"/><circle class="cls-32" cx="289.73" cy="290.27" r="165.91"/><circle class="cls-31" cx="289.74" cy="290.26" r="164.71"/><circle class="cls-60" cx="289.75" cy="290.25" r="163.5"/><circle class="cls-29" cx="289.76" cy="290.24" r="162.29"/><circle class="cls-28" cx="289.77" cy="290.23" r="161.09"/><circle class="cls-27" cx="289.78" cy="290.22" r="159.88"/><circle class="cls-26" cx="289.78" cy="290.22" r="158.67"/><circle class="cls-25" cx="289.79" cy="290.21" r="157.47"/><circle class="cls-24" cx="289.8" cy="290.2" r="156.26"/><circle class="cls-23" cx="289.81" cy="290.19" r="155.05"/><circle class="cls-22" cx="289.82" cy="290.18" r="153.84"/><circle class="cls-21" cx="289.83" cy="290.17" r="152.64"/><circle class="cls-20" cx="289.84" cy="290.16" r="151.43"/><circle class="cls-19" cx="289.84" cy="290.16" r="150.22"/><circle class="cls-18" cx="289.85" cy="290.15" r="149.02"/><circle class="cls-17" cx="289.86" cy="290.14" r="147.81"/><circle class="cls-16" cx="289.87" cy="290.13" r="146.6"/><circle class="cls-15" cx="289.88" cy="290.12" r="145.4"/><circle class="cls-14" cx="289.89" cy="290.11" r="144.19"/><circle class="cls-13" cx="289.9" cy="290.1" r="142.98"/><circle class="cls-12" cx="289.91" cy="290.09" r="141.78"/><circle class="cls-11" cx="289.91" cy="290.09" r="140.57"/><circle class="cls-10" cx="289.92" cy="290.08" r="139.36"/><circle class="cls-9" cx="289.93" cy="290.07" r="138.16"/><circle class="cls-8" cx="289.94" cy="290.06" r="136.95"/><circle class="cls-7" cx="289.95" cy="290.05" r="135.74"/><circle class="cls-6" cx="289.96" cy="290.04" r="134.53"/><circle class="cls-5" cx="289.97" cy="290.03" r="133.33"/><circle class="cls-4" cx="289.97" cy="290.03" r="132.12"/><circle class="cls-3" cx="289.98" cy="290.02" r="130.91"/><circle class="cls-2" cx="289.99" cy="290.01" r="129.71"/><circle class="cls-1" cx="290" cy="290" r="128.5"/><circle class="cls-2" cx="289.99" cy="289.99" r="127.78"/><circle class="cls-3" cx="289.98" cy="289.98" r="127.07"/><circle class="cls-4" cx="289.97" cy="289.97" r="126.35"/><circle class="cls-5" cx="289.97" cy="289.97" r="125.64"/><circle class="cls-6" cx="289.96" cy="289.96" r="124.92"/><circle class="cls-7" cx="289.95" cy="289.95" r="124.21"/><circle class="cls-8" cx="289.94" cy="289.94" r="123.49"/><circle class="cls-9" cx="289.93" cy="289.93" r="122.78"/><circle class="cls-10" cx="289.92" cy="289.92" r="122.06"/><circle class="cls-11" cx="289.91" cy="289.91" r="121.34"/><circle class="cls-12" cx="289.91" cy="289.91" r="120.63"/><circle class="cls-13" cx="289.9" cy="289.9" r="119.91"/><circle class="cls-14" cx="289.89" cy="289.89" r="119.2"/><circle class="cls-15" cx="289.88" cy="289.88" r="118.48"/><circle class="cls-16" cx="289.87" cy="289.87" r="117.77"/><circle class="cls-17" cx="289.86" cy="289.86" r="117.05"/><circle class="cls-18" cx="289.85" cy="289.85" r="116.34"/><circle class="cls-19" cx="289.84" cy="289.84" r="115.62"/><circle class="cls-20" cx="289.84" cy="289.84" r="114.91"/><circle class="cls-21" cx="289.83" cy="289.83" r="114.19"/><circle class="cls-22" cx="289.82" cy="289.82" r="113.47"/><circle class="cls-23" cx="289.81" cy="289.81" r="112.76"/><circle class="cls-24" cx="289.8" cy="289.8" r="112.04"/><circle class="cls-25" cx="289.79" cy="289.79" r="111.33"/><circle class="cls-26" cx="289.78" cy="289.78" r="110.61"/><circle class="cls-27" cx="289.78" cy="289.78" r="109.9"/><circle class="cls-28" cx="289.77" cy="289.77" r="109.18"/><circle class="cls-29" cx="289.76" cy="289.76" r="108.47"/><circle class="cls-30" cx="289.75" cy="289.75" r="107.75"/><circle class="cls-31" cx="289.74" cy="289.74" r="107.03"/><circle class="cls-32" cx="289.73" cy="289.73" r="106.32"/><circle class="cls-33" cx="289.72" cy="289.72" r="105.6"/><circle class="cls-34" cx="289.72" cy="289.72" r="104.89"/><circle class="cls-35" cx="289.71" cy="289.71" r="104.17"/><circle class="cls-36" cx="289.7" cy="289.7" r="103.46"/><circle class="cls-37" cx="289.69" cy="289.69" r="102.74"/><circle class="cls-38" cx="289.68" cy="289.68" r="102.03"/><circle class="cls-39" cx="289.67" cy="289.67" r="101.31"/><circle class="cls-40" cx="289.66" cy="289.66" r="100.59"/><circle class="cls-41" cx="289.66" cy="289.66" r="99.88"/><circle class="cls-42" cx="289.65" cy="289.65" r="99.16"/><circle class="cls-43" cx="289.64" cy="289.64" r="98.45"/><circle class="cls-44" cx="289.63" cy="289.63" r="97.73"/><circle class="cls-45" cx="289.62" cy="289.62" r="97.02"/><circle class="cls-46" cx="289.61" cy="289.61" r="96.3"/><circle class="cls-47" cx="289.6" cy="289.6" r="95.59"/><circle class="cls-48" cx="289.59" cy="289.59" r="94.87"/><circle class="cls-49" cx="289.59" cy="289.59" r="94.16"/><circle class="cls-50" cx="289.58" cy="289.58" r="93.44"/><circle class="cls-51" cx="289.57" cy="289.57" r="92.72"/><circle class="cls-52" cx="289.56" cy="289.56" r="92.01"/><circle class="cls-53" cx="289.55" cy="289.55" r="91.29"/><circle class="cls-54" cx="289.54" cy="289.54" r="90.58"/><circle class="cls-55" cx="289.53" cy="289.53" r="89.86"/><circle class="cls-56" cx="289.53" cy="289.53" r="89.15"/><circle class="cls-57" cx="289.52" cy="289.52" r="88.43"/><circle class="cls-58" cx="289.51" cy="289.51" r="87.72"/><circle class="cls-59" cx="289.5" cy="289.5" r="87"/></svg>