<svg xmlns="http://www.w3.org/2000/svg" viewBox="0 0 1440 320"><path fill=" #64748b" fill-opacity="1" d="M0,128L30,144C60,160,120,192,180,218.7C240,245,300,267,360,277.3C420,288,480,288,540,282.7C600,277,660,267,720,224C780,181,840,107,900,85.3C960,64,1020,96,1080,122.7C1140,149,1200,171,1260,165.3C1320,160,1380,128,1410,112L1440,96L1440,320L1410,320C1380,320,1320,320,1260,320C1200,320,1140,320,1080,320C1020,320,960,320,900,320C840,320,780,320,720,320C660,320,600,320,540,320C480,320,420,320,360,320C300,320,240,320,180,320C120,320,60,320,30,320L0,320Z" data-darkreader-inline-fill="" style="-darkreader-inline-fill:#18212f;"></path></svg>